<?xml version="1.0" standalone="no"?><!DOCTYPE svg PUBLIC "-//W3C//DTD SVG 1.1//EN" "http://www.w3.org/Graphics/SVG/1.1/DTD/svg11.dtd"><svg t="1619316108160" class="icon" viewBox="0 0 1024 1024" version="1.1" xmlns="http://www.w3.org/2000/svg" p-id="4154" xmlns:xlink="http://www.w3.org/1999/xlink" width="48" height="48"><defs><style type="text/css"></style></defs><path d="M816.832 787.712v63.488a44.8 44.8 0 0 1-89.6 0v-63.488c14.4 3.712 29.248 6.208 44.8 6.208 15.552 0 30.4-2.496 44.8-6.208zM556.8 592.832v258.304a44.8 44.8 0 1 1-89.6 0V592.768c14.4 3.648 29.248 6.144 44.8 6.144 15.552 0 30.4-2.496 44.8-6.144z m-260.032 194.88v63.488a44.8 44.8 0 0 1-89.6 0v-63.488c14.4 3.712 29.248 6.208 44.8 6.208 15.552 0 30.4-2.496 44.8-6.208z m-44.8-302.208a123.968 123.968 0 1 1 0 247.936 123.968 123.968 0 0 1 0-247.936z m520.064 0a123.968 123.968 0 1 1 0 247.936 123.968 123.968 0 0 1 0-247.936z m-520.064 89.6a34.432 34.432 0 1 0 0.064 68.864 34.432 34.432 0 0 0-0.064-68.864z m520.064 0a34.432 34.432 0 1 0 0.064 68.864 34.432 34.432 0 0 0-0.064-68.864zM512 290.56a123.968 123.968 0 1 1 0 247.936A123.968 123.968 0 0 1 512 290.56z m0 89.6a34.496 34.496 0 0 0 0 68.736 34.432 34.432 0 0 0 0-68.8zM251.968 128a44.8 44.8 0 0 1 44.8 44.8v258.432a181.44 181.44 0 0 0-44.8-6.144c-15.552 0-30.4 2.496-44.8 6.144V172.8a44.8 44.8 0 0 1 44.8-44.864z m520.064 0a44.8 44.8 0 0 1 44.8 44.8v258.432a181.44 181.44 0 0 0-44.8-6.144c-15.552 0-30.4 2.496-44.8 6.144V172.8a44.8 44.8 0 0 1 44.8-44.864zM512 128a44.8 44.8 0 0 1 44.8 44.8v63.36a181.44 181.44 0 0 0-44.8-6.08c-15.552 0-30.4 2.496-44.8 6.144V172.8A44.8 44.8 0 0 1 512 128z" p-id="4155"></path></svg>